<svg xmlns="http://www.w3.org/2000/svg" width="30" height="30" viewBox="0 0 30 30"><defs><style>.a{fill:#f2f2f2;}.b{fill:#625c5c;}</style></defs><g transform="translate(-90 -151)"><g transform="translate(-1432 -15)"><rect class="a" width="30" height="30" rx="10" transform="translate(1522 166)"/></g><path class="b" d="M11.037,12H.947A.95.95,0,0,1,0,11.052V8.842a.95.95,0,0,1,.947-.948H3.79V4.737a.95.95,0,0,1,.947-.947H7.9V.963A.967.967,0,0,1,8.865,0h2.173A.968.968,0,0,1,12,.963V11.037A.968.968,0,0,1,11.037,12Z" transform="translate(99 160)"/></g></svg>