<svg xmlns="http://www.w3.org/2000/svg" width="30" height="30" viewBox="0 0 30 30"><defs><style>.a{fill:#f2f2f2;}.b{fill:#625c5c;stroke:rgba(0,0,0,0);stroke-miterlimit:10;}</style></defs><g transform="translate(-1522 -166)"><rect class="a" width="30" height="30" rx="10" transform="translate(1522 166)"/><g transform="translate(1384.473 -95.658)"><g transform="translate(146.53 270.659)"><path class="b" d="M21060.668-7109.311a1.8,1.8,0,0,1-1.309-.57l-.049-.05-.107-.105c-.082-.08-.16-.159-.24-.236a.887.887,0,0,0-.635-.264c-.031,0-.064,0-.1,0h-.186c-.193,0-.375,0-.561-.016a1.824,1.824,0,0,1-1.541-1.412,3.188,3.188,0,0,1-.039-.678c0-.034,0-.068,0-.1,0-.069,0-.139,0-.208a.924.924,0,0,0-.189-.56,3.451,3.451,0,0,0-.4-.413,1.818,1.818,0,0,1-.635-1.491,1.772,1.772,0,0,1,.539-1.185c.1-.107.209-.214.313-.317.045-.044.088-.088.133-.132a.931.931,0,0,0,.242-.6c.006-.139,0-.278,0-.413v-.211a1.8,1.8,0,0,1,1.434-1.771,2.016,2.016,0,0,1,.4-.042h.008l.166,0h.043c.068,0,.139,0,.207,0a2.406,2.406,0,0,0,.318-.018.829.829,0,0,0,.471-.238c.064-.062.135-.132.213-.212l.021-.022a3.829,3.829,0,0,1,.416-.384,1.739,1.739,0,0,1,.873-.344,2.063,2.063,0,0,1,.217-.011,1.806,1.806,0,0,1,1.322.583c.119.125.244.256.381.38a.9.9,0,0,0,.639.265h.439c.074,0,.146,0,.221,0a1.828,1.828,0,0,1,1.73,1.47,4.486,4.486,0,0,1,.033.821l0,.056a1.026,1.026,0,0,0,.322.783c.041.039.082.078.121.117a3.265,3.265,0,0,1,.461.5,1.785,1.785,0,0,1,.316.894,1.8,1.8,0,0,1-.582,1.47c-.135.131-.262.257-.375.375a.9.9,0,0,0-.264.619v.634a1.83,1.83,0,0,1-1.518,1.792,2.175,2.175,0,0,1-.355.023h-.428c-.031,0-.064,0-.1,0a.96.96,0,0,0-.2.019.934.934,0,0,0-.471.254c-.074.071-.148.147-.213.213a3.741,3.741,0,0,1-.369.353,1.784,1.784,0,0,1-.936.38C21060.8-7109.314,21060.734-7109.311,21060.668-7109.311Zm1.688-8.25a.568.568,0,0,0-.406.172l-1.674,1.673-1.672,1.673a.6.6,0,0,0-.17.417.559.559,0,0,0,.344.5.561.561,0,0,0,.238.058.577.577,0,0,0,.4-.18c.785-.784,1.561-1.56,2.484-2.483l.857-.858a.569.569,0,0,0,.006-.8A.555.555,0,0,0,21062.355-7117.561Zm-.152,3.212a.548.548,0,0,0-.555.555.581.581,0,0,0,.156.414.561.561,0,0,0,.4.167h.01a.574.574,0,0,0,.566-.566.562.562,0,0,0-.152-.4.576.576,0,0,0-.414-.172Zm-3.066-3.066a.56.56,0,0,0-.4.174.572.572,0,0,0-.158.4.562.562,0,0,0,.57.566.589.589,0,0,0,.576-.571.6.6,0,0,0-.592-.571Z" transform="translate(-21054.678 7121.312)"/></g></g></g></svg>