<svg xmlns="http://www.w3.org/2000/svg" width="30" height="30" viewBox="0 0 30 30"><defs><style>.a{fill:#f2f2f2;}.b{fill:#625c5c;}</style></defs><g transform="translate(-1522 -166)"><rect class="a" width="30" height="30" rx="10" transform="translate(1522 166)"/><g transform="translate(1371.869 -97.12)"><g transform="translate(159.131 272.12)"><path class="b" d="M159.132,279.936q0-1.386,0-2.773a1.483,1.483,0,0,1,.37-1.036,4.98,4.98,0,0,1,.572-.5q1.907-1.532,3.818-3.058a1.959,1.959,0,0,1,2.529.028q2.048,1.629,4.1,3.256a1.536,1.536,0,0,1,.611,1.257q0,2.742,0,5.484a2.135,2.135,0,0,1-1.907,2.131c-.527.048-1.062.018-1.593.023a.2.2,0,0,1-.04-.006.77.77,0,0,1-.652-.786c0-.626,0-1.253,0-1.879a.889.889,0,0,0-.661-.89.9.9,0,0,0-.23-.031q-.914,0-1.828,0a.887.887,0,0,0-.889.882c0,.616,0,1.232,0,1.848a.806.806,0,0,1-.791.865c-.427,0-.853,0-1.28,0a2.158,2.158,0,0,1-2.113-2.011c-.023-.429-.012-.859-.013-1.289C159.131,280.945,159.132,280.44,159.132,279.936Z" transform="translate(-159.131 -272.12)"/></g></g></g></svg>