<svg xmlns="http://www.w3.org/2000/svg" width="30" height="30" viewBox="0 0 30 30"><defs><style>.a{fill:#f2f2f2;}.b,.c{fill:#625c5c;}.b{stroke:rgba(0,0,0,0);stroke-miterlimit:10;opacity:0.5;}</style></defs><g transform="translate(-1522 -166)"><rect class="a" width="30" height="30" rx="10" transform="translate(1522 166)"/><g transform="translate(1359.545 -116.982)"><g transform="translate(171.456 291.982)"><path class="b" d="M21055.486-7156.715h0a3.687,3.687,0,0,1-.459-1.411,3.775,3.775,0,0,1-.021-.423c-.006-1.617-.01-3.336,0-5.022a3.578,3.578,0,0,1,.656-2.125,3.108,3.108,0,0,1,2.029-1.237,4.691,4.691,0,0,1,.857-.063h3.42c.57,0,1.143,0,1.713,0a3.423,3.423,0,0,1,1.7.439,3.132,3.132,0,0,1,1.5,2.046,3.445,3.445,0,0,1,.115.873v4.166l-.023,0a.118.118,0,0,1-.084-.05.1.1,0,0,0-.018-.018c-.205-.206-.443-.446-.687-.685a6.792,6.792,0,0,0-1.227-.983,1.819,1.819,0,0,0-.912-.249,1.785,1.785,0,0,0-1.045.338,3.03,3.03,0,0,0-.746.825c-.039.059-.076.119-.113.179l-.051.078-.016.025a5.547,5.547,0,0,1-.5.712,1.406,1.406,0,0,1-.523.375.514.514,0,0,1-.2.041.753.753,0,0,1-.361-.109,4,4,0,0,1-.379-.226l-.021-.014-.08-.051a2.91,2.91,0,0,0-.73-.359,1.523,1.523,0,0,0-.443-.067,1.592,1.592,0,0,0-.762.2,3.473,3.473,0,0,0-1.074.983c-.393.49-.809.983-1.213,1.459l0,0-.2.238c-.008.01-.018.02-.025.031l-.008.009a.2.2,0,0,1-.062.066Zm3.691-7.825a1.662,1.662,0,0,0-1.182.5,1.668,1.668,0,0,0-.49,1.178,1.677,1.677,0,0,0,1.656,1.655,1.678,1.678,0,0,0,1.676-1.66A1.688,1.688,0,0,0,21059.178-7164.54Z" transform="translate(-21055 7167)"/><path class="c" d="M182.411,422.805a.157.157,0,0,1,.05-.1c.578-.725,1.175-1.361,1.763-2.078a2.3,2.3,0,0,1,1.184-.829,1.623,1.623,0,0,1,1.305.248c.236.145.467.3.7.447a.634.634,0,0,0,.753-.025,2.507,2.507,0,0,0,.682-.807c.179-.291.346-.59.551-.863a2.061,2.061,0,0,1,1.17-.82,1.756,1.756,0,0,1,1.455.3,8.97,8.97,0,0,1,1.316,1.171q.283.287.568.573a7.948,7.948,0,0,1-.131,2.012,3.182,3.182,0,0,1-2.641,2.459,3.889,3.889,0,0,1-.592.045c-1.811,0-3.623.025-5.434-.013A3.135,3.135,0,0,1,182.411,422.805Z" transform="translate(-181.913 -412.546)"/></g></g></g></svg>