<svg xmlns="http://www.w3.org/2000/svg" width="30" height="30" viewBox="0 0 30 30"><defs><style>.a{fill:#f2f2f2;}.b{fill:#625c5c;}</style></defs><g transform="translate(-90 -151)"><g transform="translate(-1432 -15)"><rect class="a" width="30" height="30" rx="10" transform="translate(1522 166)"/></g><path class="b" d="M11.8,8.361,8.4,6.4l3.4-1.961a.4.4,0,0,0,.147-.547l-.8-1.386a.4.4,0,0,0-.547-.147L7.2,4.321V.4A.4.4,0,0,0,6.8,0H5.2a.4.4,0,0,0-.4.4V4.322L1.4,2.361a.4.4,0,0,0-.547.147l-.8,1.386A.4.4,0,0,0,.2,4.439L3.6,6.4.2,8.361a.4.4,0,0,0-.147.547l.8,1.386a.4.4,0,0,0,.547.147L4.8,8.479V12.4a.4.4,0,0,0,.4.4H6.8a.4.4,0,0,0,.4-.4V8.479l3.4,1.961a.4.4,0,0,0,.547-.147l.8-1.386A.4.4,0,0,0,11.8,8.361Z" transform="translate(99 160)"/></g></svg>