<svg xmlns="http://www.w3.org/2000/svg" width="30" height="30" viewBox="0 0 30 30"><defs><style>.a{fill:#f2f2f2;}.b,.c{fill:#625c5c;}.c{opacity:0.5;}</style></defs><g transform="translate(-1522 -166)"><rect class="a" width="30" height="30" rx="10" transform="translate(1522 166)"/><g transform="translate(1323.057 -164.437)"><g transform="translate(207.944 339.437)"><path class="b" d="M212.641,461.121a11.339,11.339,0,0,1-2.744-.258,3.606,3.606,0,0,1-1.145-.465,1.693,1.693,0,0,1,.058-2.921,4.389,4.389,0,0,1,1.577-.526,14.627,14.627,0,0,1,3.094-.136,7.35,7.35,0,0,1,2.493.455,2.448,2.448,0,0,1,.751.456,1.675,1.675,0,0,1-.091,2.552,3.469,3.469,0,0,1-1.461.618c-.266.057-.535.106-.8.138A13.506,13.506,0,0,1,212.641,461.121Z" transform="translate(-207.944 -449.899)"/><path class="c" d="M235.614,339.438a3.033,3.033,0,0,1,3.049,2.335,2.847,2.847,0,0,1-1,2.966,3.094,3.094,0,0,1-4.071-.048,2.915,2.915,0,0,1-.992-1.91,3.023,3.023,0,0,1,2.579-3.314C235.338,339.443,235.5,339.444,235.614,339.438Z" transform="translate(-231.001 -339.437)"/><path class="c" d="M336.652,352.239c-.107,0-.213.005-.319,0-.2-.013-.243-.1-.134-.266a3.225,3.225,0,0,0,.946-2.266,3.08,3.08,0,0,0-1-2.288c-.111-.16-.094-.2.1-.227a2.6,2.6,0,0,1,2.967,2.148,2.526,2.526,0,0,1-2.073,2.872A2.623,2.623,0,0,1,336.652,352.239Z" transform="translate(-328.566 -346.668)"/><path class="b" d="M342.131,442.126c.089,0,.177,0,.266,0a9.457,9.457,0,0,1,2.435.322,2.386,2.386,0,0,1,.731.352,1.664,1.664,0,0,1,.021,2.638,8.352,8.352,0,0,1-2.261.531c-.178.033-.224-.018-.211-.206a2.162,2.162,0,0,0-.4-3.185c-.1-.078-.195-.149-.295-.218s-.193-.124-.289-.186Z" transform="translate(-333.494 -435.171)"/></g></g></g></svg>