<svg xmlns="http://www.w3.org/2000/svg" width="30" height="30" viewBox="0 0 30 30"><defs><style>.a{fill:#f2f2f2;}.b{fill:#625c5c;}</style></defs><g transform="translate(-1522 -166)"><rect class="a" width="30" height="30" rx="10" transform="translate(1522 166)"/><path class="b" d="M15.509,10.5A1.544,1.544,0,0,1,16.5,9.059a6.121,6.121,0,0,0-.741-1.784,1.565,1.565,0,0,1-.628.134,1.541,1.541,0,0,1-1.409-2.169A6.1,6.1,0,0,0,11.941,4.5a1.543,1.543,0,0,1-2.881,0,6.121,6.121,0,0,0-1.784.741A1.541,1.541,0,0,1,5.866,7.409a1.514,1.514,0,0,1-.628-.134A6.256,6.256,0,0,0,4.5,9.063a1.544,1.544,0,0,1,0,2.881,6.121,6.121,0,0,0,.741,1.784,1.541,1.541,0,0,1,2.034,2.034,6.157,6.157,0,0,0,1.784.741,1.54,1.54,0,0,1,2.875,0,6.121,6.121,0,0,0,1.784-.741,1.543,1.543,0,0,1,2.034-2.034,6.156,6.156,0,0,0,.741-1.784A1.552,1.552,0,0,1,15.509,10.5ZM10.528,13a2.5,2.5,0,1,1,2.5-2.5A2.5,2.5,0,0,1,10.528,13Z" transform="translate(1526.5 170.5)"/></g></svg>