<svg xmlns="http://www.w3.org/2000/svg" width="25" height="25" viewBox="0 0 25 25"><defs><style>.a{fill:rgba(255,255,255,0);}.b{fill:#f6921e;}</style></defs><g transform="translate(-270 -237)"><rect class="a" width="25" height="25" rx="5" transform="translate(270 237)"/><path class="b" d="M21.318,5.106l0,0v15l0,0H3.823l0,0v-15l0,0Zm0-1.25H3.821a1.254,1.254,0,0,0-1.25,1.25v15a1.254,1.254,0,0,0,1.25,1.25h17.5a1.254,1.254,0,0,0,1.25-1.25v-15A1.254,1.254,0,0,0,21.321,3.856Zm-2.5,4.375a1.875,1.875,0,1,1-1.875-1.875A1.875,1.875,0,0,1,18.821,8.231Zm1.25,10.625h-15v-2.5l4.375-7.5,5,6.25H15.7l4.375-3.75Z" transform="translate(270.43 237.144)"/></g></svg>