<svg xmlns="http://www.w3.org/2000/svg" width="12" height="12" viewBox="0 0 12 12"><defs><style>.a,.b{fill:#6d7279;}.b{fill-rule:evenodd;}</style></defs><path class="a" d="M9.607,6a3.59,3.59,0,0,0-1.987.6H9.607v.6H6.923A3.6,3.6,0,0,0,6.2,8.42H9.607v.6H6.047a3.648,3.648,0,0,0,0,1.182H9.607v.6H6.2a3.6,3.6,0,0,0,.715,1.207H9.607v.6H7.612A3.607,3.607,0,1,0,9.607,6Z" transform="translate(-3.607 -3.607)"/><path class="b" d="M2,8a6,6,0,1,1,6,6A6,6,0,0,1,2,8Zm6,4.8A4.8,4.8,0,1,1,12.8,8,4.8,4.8,0,0,1,8,12.8Z" transform="translate(-2 -2)"/></svg>