<svg xmlns="http://www.w3.org/2000/svg" width="25" height="25" viewBox="0 0 25 25"><defs><style>.a{fill:rgba(255,255,255,0);}.b{fill:#f6921e;}</style></defs><g transform="translate(-270 -237)"><rect class="a" width="25" height="25" rx="5" transform="translate(270 237)"/><path class="b" d="M11.5,14.768a1.037,1.037,0,0,1-.736-.3,4.887,4.887,0,0,1,0-6.9l3.841-3.841a4.881,4.881,0,1,1,6.9,6.9l-1.756,1.756a1.04,1.04,0,0,1-1.471-1.471l1.756-1.756A2.8,2.8,0,0,0,16.076,5.19L12.236,9.031a2.8,2.8,0,0,0,0,3.961,1.04,1.04,0,0,1-.736,1.776ZM7.814,22.294a4.881,4.881,0,0,1-3.451-8.333l1.756-1.756A1.04,1.04,0,1,1,7.59,13.677L5.834,15.433a2.8,2.8,0,0,0,3.961,3.961l3.841-3.841a2.8,2.8,0,0,0,0-3.961,1.04,1.04,0,1,1,1.471-1.471,4.887,4.887,0,0,1,0,6.9l-3.841,3.841a4.849,4.849,0,0,1-3.452,1.43Z" transform="translate(270.064 236.711)"/></g></svg>