<svg xmlns="http://www.w3.org/2000/svg" width="25" height="25" viewBox="0 0 25 25"><defs><style>.a{fill:rgba(255,255,255,0);}.b{fill:#f6921e;}</style></defs><g transform="translate(-270 -237)"><rect class="a" width="25" height="25" rx="5" transform="translate(270 237)"/><path class="b" d="M18.573,6.346a2.536,2.536,0,0,1,.523.828,2.516,2.516,0,0,1,.218.959V20.691a1.042,1.042,0,0,1-1.046,1.046H3.617a1.042,1.042,0,0,1-1.046-1.046V3.25A1.042,1.042,0,0,1,3.617,2.2h9.767a2.516,2.516,0,0,1,.959.218,2.536,2.536,0,0,1,.828.523Zm-4.84-2.66v4.1h4.1a1.191,1.191,0,0,0-.24-.447L14.18,3.926a1.191,1.191,0,0,0-.447-.24Zm4.186,16.656V9.18H13.384a1.042,1.042,0,0,1-1.046-1.046V3.6H3.966V20.342H17.919ZM7.8,10.575a.318.318,0,0,1,.229-.136.361.361,0,0,1,.262.071l.556.414a.318.318,0,0,1,.136.229.361.361,0,0,1-.071.262L6.931,14.064l1.984,2.649a.361.361,0,0,1,.071.262.318.318,0,0,1-.136.229l-.556.414a.361.361,0,0,1-.262.071.318.318,0,0,1-.229-.136L5.34,14.271a.319.319,0,0,1,0-.414Zm8.742,3.281a.319.319,0,0,1,0,.414l-2.464,3.281a.318.318,0,0,1-.229.136.361.361,0,0,1-.262-.071l-.556-.414a.318.318,0,0,1-.136-.229.361.361,0,0,1,.071-.262l1.984-2.649L12.97,11.415a.361.361,0,0,1-.071-.262.318.318,0,0,1,.136-.229l.556-.414a.361.361,0,0,1,.262-.071.318.318,0,0,1,.229.136ZM9.787,18.882a.319.319,0,0,1-.223-.142.354.354,0,0,1-.06-.262l1.5-9.059A.319.319,0,0,1,11.15,9.2a.354.354,0,0,1,.262-.06l.687.109a.319.319,0,0,1,.223.142.354.354,0,0,1,.06.262l-1.5,9.059a.319.319,0,0,1-.142.223.354.354,0,0,1-.262.06Z" transform="translate(272.057 237.696)"/></g></svg>