<svg xmlns="http://www.w3.org/2000/svg" width="260" height="147.638" viewBox="0 0 260 147.638"><defs><style>.a{fill:#e2d0c3;}.b{opacity:0.4;}</style></defs><g transform="translate(-955 -379.476)"><path class="a" d="M14444.492,1620.619a5.57,5.57,0,0,1-2.49-2.98V1605.18a44.9,44.9,0,0,1,1.526-5.653c3.253-7.971,9.14-12.781,17.688-14.186a24.634,24.634,0,0,1,3.987-.27q8.682-.016,17.363-.011t17.367-.007a22.318,22.318,0,0,1,19.123,9.684,20.911,20.911,0,0,1,4.01,11.795c.1,3.268.036,6.544.033,9.816a4.52,4.52,0,1,1-9.034.091c-.052-3.166.007-6.336-.033-9.5a13.372,13.372,0,0,0-11.82-12.762c-.909-.08-1.825-.128-2.738-.128q-17.2-.011-34.413,0c-5.912,0-10.271,2.629-12.813,7.96a13.2,13.2,0,0,0-1.132,4.871c-.179,3.155-.021,6.332-.073,9.5a4.638,4.638,0,0,1-4.518,4.742A4.5,4.5,0,0,1,14444.492,1620.619Zm99.772.263a4.5,4.5,0,0,1-3.162-4.4c-.047-2.885.011-5.773-.019-8.658a13.259,13.259,0,0,0-7.471-12.28,23.1,23.1,0,0,0-2.739-1.063c-2.6-.993-3.83-3.316-3.049-5.77a4.614,4.614,0,0,1,5.912-2.819c9.275,2.918,14.65,9.228,16.221,18.809a2.433,2.433,0,0,0,.183.478v12.463a12.6,12.6,0,0,1-.9,1.618,4.479,4.479,0,0,1-3.588,1.842A4.536,4.536,0,0,1,14544.265,1620.882Zm-84.278-67.376a22.565,22.565,0,1,1,22.592,22.523h-.026A22.62,22.62,0,0,1,14459.986,1553.506Zm9.063-.537a13.516,13.516,0,1,0,27.015.935,13.522,13.522,0,0,0-13.259-13.916c-.168-.007-.337-.01-.5-.01A13.534,13.534,0,0,0,14469.049,1552.969Zm40.727,19.3a4.35,4.35,0,0,1,2.936-5.514,14.866,14.866,0,0,0,7.077-4.345,13.523,13.523,0,0,0-6.324-21.815c-2.538-.778-3.823-2.235-3.871-4.382-.069-3.214,2.849-5.309,6.116-4.4a22.355,22.355,0,0,1,16.279,19.105c.1.873.157,1.749.237,2.625a22.707,22.707,0,0,1-16.885,21.793,5.048,5.048,0,0,1-1.246.159A4.454,4.454,0,0,1,14509.775,1572.264Z" transform="translate(-13411 -1094)"/><g transform="translate(1008.29 379.476)"><rect class="a" width="10.288" height="2.849" rx="0.034" transform="translate(32.025 28.667)"/><rect class="a" width="3.324" height="2.849" rx="0.034" transform="translate(24.27 28.667)"/><path class="a" d="M889.918,1376.946h-.123a.032.032,0,0,1-.031-.027,8.15,8.15,0,0,0-12.975-5.261.03.03,0,0,1-.047-.019,12.347,12.347,0,0,0-13.271-9.854l-1.272.115a12.278,12.278,0,0,0-11.155,12.263,11.42,11.42,0,0,0,.054,1.2,12.334,12.334,0,0,0,.252,1.585h-.581a8.156,8.156,0,0,0-8.114,9.007,8.359,8.359,0,0,0,8.424,7.289h1.408a.033.033,0,0,0,.033-.032v-2.784a.034.034,0,0,0-.033-.033h-1.464a5.472,5.472,0,0,1-5.563-5.288,5.306,5.306,0,0,1,5.309-5.31h2.526a1.425,1.425,0,0,0,1.314-1.974,9.335,9.335,0,0,1-.676-2.743,8.5,8.5,0,0,1-.04-.915,9.439,9.439,0,0,1,8.571-9.426l1.271-.115a9.494,9.494,0,0,1,10.356,8.555,8.333,8.333,0,0,1,.039.893c0,.219-.009.431-.026.651a1.425,1.425,0,0,0,2.428,1.115l1.271-1.271a5.451,5.451,0,0,1,7.222-.544,5.294,5.294,0,0,1,1.985,4.161,1.426,1.426,0,0,0,1.412,1.614h1.227a5.472,5.472,0,0,1,5.563,5.27,5.288,5.288,0,0,1-5.3,5.328h-.557v2.849h.557a8.139,8.139,0,0,0,5.764-2.383,8.271,8.271,0,0,0,1.8-8.905A8,8,0,0,0,889.918,1376.946Z" transform="translate(-842.61 -1361.727)"/></g><g class="b" transform="translate(955 441.38)"><rect class="a" width="6.452" height="1.787" rx="0.034" transform="translate(20.086 17.979)"/><rect class="a" width="2.085" height="1.787" rx="0.034" transform="translate(15.221 17.979)"/><path class="a" d="M872.281,1371.272H872.2a.021.021,0,0,1-.02-.017,5.111,5.111,0,0,0-8.138-3.3.019.019,0,0,1-.03-.012,7.744,7.744,0,0,0-8.324-6.18l-.8.072a7.7,7.7,0,0,0-7,7.691,7.161,7.161,0,0,0,.034.751,7.767,7.767,0,0,0,.158.994h-.365a5.115,5.115,0,0,0-5.089,5.648,5.243,5.243,0,0,0,5.284,4.572h.883a.021.021,0,0,0,.021-.02v-1.746a.021.021,0,0,0-.021-.021h-.918a3.432,3.432,0,0,1-3.489-3.316,3.327,3.327,0,0,1,3.329-3.331h1.584a.894.894,0,0,0,.824-1.239,5.845,5.845,0,0,1-.424-1.72,5.317,5.317,0,0,1-.025-.573,5.92,5.92,0,0,1,5.375-5.912l.8-.072a5.955,5.955,0,0,1,6.5,5.365,5.231,5.231,0,0,1,.024.56c0,.137-.005.27-.016.409a.894.894,0,0,0,1.523.7l.8-.8a3.419,3.419,0,0,1,4.529-.341,3.32,3.32,0,0,1,1.245,2.609.895.895,0,0,0,.886,1.012h.77a3.432,3.432,0,0,1,3.489,3.3,3.317,3.317,0,0,1-3.323,3.342h-.35v1.787h.35a5.1,5.1,0,0,0,3.615-1.495,5.187,5.187,0,0,0,1.129-5.585A5.02,5.02,0,0,0,872.281,1371.272Z" transform="translate(-842.61 -1361.727)"/></g><g transform="translate(1161.075 417.225)"><rect class="a" width="10.005" height="2.771" rx="0.034" transform="translate(12.776 27.878)"/><rect class="a" width="3.232" height="2.771" rx="0.034" transform="translate(27.09 27.878)"/><path class="a" d="M958.028,1406.277h.121a.031.031,0,0,0,.03-.027,7.926,7.926,0,0,1,12.618-5.116.029.029,0,0,0,.047-.018,12.007,12.007,0,0,1,12.906-9.583l1.236.112a11.94,11.94,0,0,1,10.848,11.926,11.266,11.266,0,0,1-.052,1.164,11.862,11.862,0,0,1-.246,1.541h.566a7.931,7.931,0,0,1,7.891,8.759,8.128,8.128,0,0,1-8.193,7.089h-1.37a.032.032,0,0,1-.031-.032v-2.707a.032.032,0,0,1,.031-.031h1.425a5.322,5.322,0,0,0,5.41-5.143,5.158,5.158,0,0,0-5.162-5.164h-2.457a1.384,1.384,0,0,1-1.278-1.919,9.058,9.058,0,0,0,.658-2.667,8.277,8.277,0,0,0,.038-.889,9.178,9.178,0,0,0-8.334-9.167l-1.238-.112a9.232,9.232,0,0,0-10.07,8.319,8.128,8.128,0,0,0-.038.868c0,.214.009.42.025.634a1.385,1.385,0,0,1-2.361,1.084l-1.235-1.236a5.3,5.3,0,0,0-7.024-.529,5.147,5.147,0,0,0-1.931,4.046,1.385,1.385,0,0,1-1.373,1.569H958.29a5.321,5.321,0,0,0-5.409,5.125,5.142,5.142,0,0,0,5.153,5.182h.542v2.77h-.542a7.913,7.913,0,0,1-5.606-2.317,8.043,8.043,0,0,1-1.751-8.66A7.785,7.785,0,0,1,958.028,1406.277Z" transform="translate(-950.11 -1391.477)"/></g></g></svg>