<svg xmlns="http://www.w3.org/2000/svg" width="12.881" height="12.881" viewBox="0 0 12.881 12.881"><defs><style>.a{fill:#6d7279;}</style></defs><path class="a" d="M12.634,3.538a2.792,2.792,0,0,0-.4.028,3.994,3.994,0,0,0-6.451,0,2.792,2.792,0,0,0-.4-.028,2.818,2.818,0,1,0,0,5.635,2.788,2.788,0,0,0,1-.184,3.973,3.973,0,0,0,5.247,0,2.788,2.788,0,0,0,1,.184,2.818,2.818,0,1,0,0-5.635ZM4.986,9.978a.805.805,0,1,0,.805.805A.8.8,0,0,0,4.986,9.978Zm4.025.805a.805.805,0,1,0,.805.805A.8.8,0,0,0,9.011,10.783Zm4.025-.805a.805.805,0,1,0,.805.805A.8.8,0,0,0,13.036,9.978Zm-1.61,3.22a.805.805,0,1,0,.805.805A.8.8,0,0,0,11.426,13.2Zm-4.83,0A.805.805,0,1,0,7.4,14,.8.8,0,0,0,6.6,13.2Z" transform="translate(-2.571 -1.928)"/></svg>