<svg xmlns="http://www.w3.org/2000/svg" width="12" height="12" viewBox="0 0 12 12"><defs><style>.a{fill:#6d7279;}</style></defs><path class="a" d="M3.035,12.943a5.739,5.739,0,0,0,5.106,5.106Z" transform="translate(-3.013 -6.071)"/><path class="a" d="M3,10.632l6.052,6.052a5.749,5.749,0,0,0,1.516-.292L3.292,9.115A5.749,5.749,0,0,0,3,10.632Z" transform="translate(-3 -4.684)"/><path class="a" d="M3.867,7.467l7.657,7.657a5.705,5.705,0,0,0,1.131-.716L4.583,6.337A5.706,5.706,0,0,0,3.867,7.467Z" transform="translate(-3.314 -3.677)"/><path class="a" d="M5.663,4.745A6.051,6.051,0,0,1,14.22,13.3Z" transform="translate(-3.965 -3)"/></svg>